<mxfile host="app.diagrams.net" agent="Mozilla/5.0 (Windows NT 10.0; Win64; x64) AppleWebKit/537.36 (KHTML, like Gecko) Chrome/136.0.0.0 Safari/537.36" version="27.1.3">
  <diagram name="第 1 页" id="atoLTKYN6ja91Ou9wwb8">
    <mxGraphModel dx="1042" dy="535" grid="1" gridSize="10" guides="1" tooltips="1" connect="1" arrows="1" fold="1" page="1" pageScale="1" pageWidth="827" pageHeight="1169" math="0" shadow="0">
      <root>
        <mxCell id="0" />
        <mxCell id="1" parent="0" />
        <mxCell id="ze23tj0L3lsAWGdD1u4b-1" value="Orgchart" style="swimlane;startSize=20;horizontal=1;containerType=tree;newEdgeStyle={&quot;edgeStyle&quot;:&quot;elbowEdgeStyle&quot;,&quot;startArrow&quot;:&quot;none&quot;,&quot;endArrow&quot;:&quot;none&quot;};" parent="1" vertex="1">
          <mxGeometry x="110" y="40" width="620" height="520" as="geometry" />
        </mxCell>
        <mxCell id="ze23tj0L3lsAWGdD1u4b-2" value="" style="edgeStyle=elbowEdgeStyle;elbow=vertical;sourcePerimeterSpacing=0;targetPerimeterSpacing=0;startArrow=none;endArrow=none;rounded=0;curved=0;" parent="ze23tj0L3lsAWGdD1u4b-1" source="ze23tj0L3lsAWGdD1u4b-4" target="ze23tj0L3lsAWGdD1u4b-5" edge="1">
          <mxGeometry relative="1" as="geometry" />
        </mxCell>
        <mxCell id="ze23tj0L3lsAWGdD1u4b-3" value="" style="edgeStyle=elbowEdgeStyle;elbow=vertical;sourcePerimeterSpacing=0;targetPerimeterSpacing=0;startArrow=none;endArrow=none;rounded=0;curved=0;" parent="ze23tj0L3lsAWGdD1u4b-1" source="ze23tj0L3lsAWGdD1u4b-4" target="ze23tj0L3lsAWGdD1u4b-6" edge="1">
          <mxGeometry relative="1" as="geometry" />
        </mxCell>
        <UserObject label="产品开发测试(40)" treeRoot="1" id="ze23tj0L3lsAWGdD1u4b-4">
          <mxCell style="whiteSpace=wrap;html=1;align=center;treeFolding=1;treeMoving=1;newEdgeStyle={&quot;edgeStyle&quot;:&quot;elbowEdgeStyle&quot;,&quot;startArrow&quot;:&quot;none&quot;,&quot;endArrow&quot;:&quot;none&quot;};" parent="ze23tj0L3lsAWGdD1u4b-1" vertex="1">
            <mxGeometry x="215" y="90" width="120" height="60" as="geometry" />
          </mxCell>
        </UserObject>
        <mxCell id="ze23tj0L3lsAWGdD1u4b-5" value="固件开发(20)" style="whiteSpace=wrap;html=1;align=center;verticalAlign=middle;treeFolding=1;treeMoving=1;newEdgeStyle={&quot;edgeStyle&quot;:&quot;elbowEdgeStyle&quot;,&quot;startArrow&quot;:&quot;none&quot;,&quot;endArrow&quot;:&quot;none&quot;};" parent="ze23tj0L3lsAWGdD1u4b-1" vertex="1" collapsed="1">
          <mxGeometry x="40" y="260" width="100" height="60" as="geometry" />
        </mxCell>
        <mxCell id="ze23tj0L3lsAWGdD1u4b-6" value="硬件开发(18)" style="whiteSpace=wrap;html=1;align=center;verticalAlign=middle;treeFolding=1;treeMoving=1;newEdgeStyle={&quot;edgeStyle&quot;:&quot;elbowEdgeStyle&quot;,&quot;startArrow&quot;:&quot;none&quot;,&quot;endArrow&quot;:&quot;none&quot;};" parent="ze23tj0L3lsAWGdD1u4b-1" vertex="1">
          <mxGeometry x="160" y="260" width="100" height="60" as="geometry" />
        </mxCell>
        <mxCell id="ze23tj0L3lsAWGdD1u4b-10" value="上位机(18)" style="whiteSpace=wrap;html=1;align=center;verticalAlign=middle;treeFolding=1;treeMoving=1;newEdgeStyle={&quot;edgeStyle&quot;:&quot;elbowEdgeStyle&quot;,&quot;startArrow&quot;:&quot;none&quot;,&quot;endArrow&quot;:&quot;none&quot;};" parent="ze23tj0L3lsAWGdD1u4b-1" vertex="1">
          <mxGeometry x="280" y="260" width="100" height="60" as="geometry" />
        </mxCell>
        <mxCell id="ze23tj0L3lsAWGdD1u4b-11" value="" style="edgeStyle=elbowEdgeStyle;elbow=vertical;sourcePerimeterSpacing=0;targetPerimeterSpacing=0;startArrow=none;endArrow=none;rounded=0;curved=0;" parent="ze23tj0L3lsAWGdD1u4b-1" source="ze23tj0L3lsAWGdD1u4b-4" target="ze23tj0L3lsAWGdD1u4b-10" edge="1">
          <mxGeometry relative="1" as="geometry">
            <mxPoint x="254" y="150" as="sourcePoint" />
            <mxPoint x="210" y="260" as="targetPoint" />
          </mxGeometry>
        </mxCell>
        <mxCell id="ze23tj0L3lsAWGdD1u4b-12" value="测试(20)" style="whiteSpace=wrap;html=1;align=center;verticalAlign=middle;treeFolding=1;treeMoving=1;newEdgeStyle={&quot;edgeStyle&quot;:&quot;elbowEdgeStyle&quot;,&quot;startArrow&quot;:&quot;none&quot;,&quot;endArrow&quot;:&quot;none&quot;};" parent="ze23tj0L3lsAWGdD1u4b-1" vertex="1" collapsed="1">
          <mxGeometry x="410" y="260" width="100" height="60" as="geometry" />
        </mxCell>
        <mxCell id="ze23tj0L3lsAWGdD1u4b-13" value="" style="edgeStyle=elbowEdgeStyle;elbow=vertical;sourcePerimeterSpacing=0;targetPerimeterSpacing=0;startArrow=none;endArrow=none;rounded=0;curved=0;" parent="ze23tj0L3lsAWGdD1u4b-1" source="ze23tj0L3lsAWGdD1u4b-4" target="ze23tj0L3lsAWGdD1u4b-12" edge="1">
          <mxGeometry relative="1" as="geometry">
            <mxPoint x="254" y="150" as="sourcePoint" />
            <mxPoint x="330" y="260" as="targetPoint" />
          </mxGeometry>
        </mxCell>
        <mxCell id="zBCr5KkDJ-O4WMeaJdgD-26" value="116W" style="whiteSpace=wrap;html=1;" vertex="1" parent="ze23tj0L3lsAWGdD1u4b-1">
          <mxGeometry x="360" y="100" width="90" height="40" as="geometry" />
        </mxCell>
        <mxCell id="zBCr5KkDJ-O4WMeaJdgD-27" value="计量误差（准确度实验室）&lt;div&gt;安规实验室&lt;/div&gt;&lt;div&gt;EMC实验室&lt;/div&gt;&lt;div&gt;环境实验室&lt;/div&gt;&lt;div&gt;基建，吊装&lt;/div&gt;&lt;div&gt;&lt;br&gt;&lt;/div&gt;&lt;div&gt;133W&lt;/div&gt;" style="text;html=1;align=left;verticalAlign=middle;resizable=0;points=[];autosize=1;strokeColor=none;fillColor=none;" vertex="1" parent="ze23tj0L3lsAWGdD1u4b-1">
          <mxGeometry x="40" y="350" width="170" height="110" as="geometry" />
        </mxCell>
        <mxCell id="zBCr5KkDJ-O4WMeaJdgD-30" value="250W" style="text;html=1;align=center;verticalAlign=middle;resizable=0;points=[];autosize=1;strokeColor=none;fillColor=none;" vertex="1" parent="1">
          <mxGeometry x="485" y="438" width="50" height="30" as="geometry" />
        </mxCell>
      </root>
    </mxGraphModel>
  </diagram>
</mxfile>
